# xmcd
# 
# Track frame offsets:
#     150
#     15009
#     27790
#     36304
#     50374
#     60736
#     81855
#     102713
#     124095
#     150745
# 
# Disc length: 2255
# 
# Revision: 0
# Processed by: cddbd v1.5.2PL0 Copyright (c) Steve Scherf et al.
# Submitted via: fre:ac v1.0.31
# 
DISCID=7608cd0a
DTITLE=Kjell Braaten - Sverdet
DYEAR=2010
DGENRE=Folk
TTITLE0=Olav får sverdet
TTITLE1=Olavs fest
TTITLE2=Dåpen i Rouen
TTITLE3=Kjærlighet
TTITLE4=Olav gir fra seg Bæring og rir ut av byen
TTITLE5=Utrygge tider MST
TTITLE6=Olav henter sverdet
TTITLE7=Slaget
TTITLE8=Kongens død
TTITLE9=Applause
EXTD=
EXTT0=
EXTT1=
EXTT2=
EXTT3=
EXTT4=
EXTT5=
EXTT6=
EXTT7=
EXTT8=
EXTT9=
PLAYORDER=
